<?xml version="1.0" encoding="utf-8"?>
<!-- Generator: Adobe Illustrator 17.1.0, SVG Export Plug-In . SVG Version: 6.00 Build 0)  -->
<!DOCTYPE svg PUBLIC "-//W3C//DTD SVG 1.1//EN" "http://www.w3.org/Graphics/SVG/1.1/DTD/svg11.dtd">
<svg version="1.1" id="Calque_1" xmlns="http://www.w3.org/2000/svg" xmlns:xlink="http://www.w3.org/1999/xlink" x="0px" y="0px"
	 viewBox="0 0 186.003 214.778" enable-background="new 0 0 186.003 214.778" xml:space="preserve">
<polygon points="0,53.695 93.002,0 186.003,53.695 186.003,161.084 93.002,214.778 0,161.084 "/>
<g>
	<path fill="#FFFFFF" d="M32.671,83.198c4.666,0,7.014,3.615,7.014,7.23s-2.349,7.199-7.014,7.199h-4.758v7.2h-3.152V83.198H32.671z
		 M32.671,94.538c2.626,0,3.924-2.039,3.924-4.079c0-2.07-1.298-4.109-3.924-4.109h-4.758v8.188H32.671z"/>
	<path fill="#FFFFFF" d="M44.386,101.707h10.166v3.121H41.265V83.229h3.121V101.707z"/>
	<path fill="#FFFFFF" d="M68.429,98.462h-7.756c-0.834,1.978-1.916,4.573-2.595,6.365H54.71l8.683-21.907h2.287l8.683,21.907h-3.337
		L68.429,98.462z M61.847,95.527h5.376l-2.657-7.632L61.847,95.527z"/>
	<path fill="#FFFFFF" d="M77.579,104.92V86.103h-6.551v-2.905H87.22v2.905H80.7v18.817H77.579z"/>
	<path fill="#FFFFFF" d="M89.386,86.195c1.978-2.008,4.758-3.275,7.786-3.275c3.06,0,5.81,1.267,7.817,3.275
		c1.947,2.009,3.214,4.759,3.214,7.818c0,3.059-1.267,5.809-3.214,7.817c-2.008,2.039-4.758,3.275-7.817,3.275
		c-3.028,0-5.809-1.236-7.786-3.275c-1.947-2.009-3.214-4.759-3.214-7.817C86.172,90.954,87.439,88.204,89.386,86.195z
		 M102.765,88.42c-1.452-1.453-3.461-2.349-5.593-2.349s-4.109,0.896-5.531,2.349c-1.421,1.421-2.317,3.399-2.317,5.593
		s0.896,4.171,2.317,5.592c1.421,1.453,3.399,2.349,5.531,2.349s4.141-0.896,5.593-2.349c1.391-1.421,2.287-3.368,2.287-5.592
		C105.052,91.788,104.156,89.842,102.765,88.42z"/>
	<path fill="#FFFFFF" d="M110.156,104.827v-21.66l2.41,0.031l10.537,15.233V83.198h3.09v21.629h-2.473l-10.443-15.11v15.11H110.156z
		"/>
	<path fill="#FFFFFF" d="M139.792,86.319h-4.017v15.388h4.017v3.121h-11.154v-3.121h4.017V86.319h-4.017v-3.09h11.154V86.319z"/>
	<path fill="#FFFFFF" d="M142.915,86.319c1.885-1.947,4.542-3.214,7.478-3.214c4.944,0,8.837,3.09,10.073,7.972h-3.09
		c-1.144-3.245-3.801-4.882-6.983-4.882c-2.07,0-3.955,0.896-5.314,2.318c-1.359,1.421-2.225,3.337-2.225,5.562
		c0,2.163,0.865,4.079,2.225,5.5s3.244,2.317,5.314,2.317c3.275,0,6.057-1.885,7.169-5.16h3.059
		c-1.236,4.913-5.191,8.25-10.228,8.25c-2.936,0-5.593-1.236-7.478-3.213c-1.854-1.978-3.09-4.697-3.09-7.694
		C139.825,91.015,141.062,88.297,142.915,86.319z"/>
	<path fill="#FFFFFF" stroke="#FFFFFF" stroke-miterlimit="10" d="M56.345,117.581c-0.186-0.896-0.556-1.669-1.174-2.349
		c-1.329-1.421-3.46-2.009-5.407-1.978c-2.04,0.031-4.357,0.772-5.654,2.472c-0.773,0.958-1.051,2.102-0.958,3.307
		c0.556,7.57,12.668,1.638,14.152,8.559c0.989,4.573-3.337,7.292-7.447,7.292c-3.152,0-6.983-1.792-7.354-5.283l-0.031-0.217
		l0.494-0.062l0.031,0.217c0.34,3.244,3.955,4.882,6.891,4.882c3.77,0,7.849-2.441,6.952-6.736
		c-1.39-6.427-13.595-0.556-14.151-8.621c-0.124-1.297,0.216-2.564,1.02-3.614c3.152-4.079,12.051-3.554,13.101,2.039l0.031,0.247
		l-0.463,0.093L56.345,117.581z"/>
	<path fill="#FFFFFF" stroke="#FFFFFF" stroke-miterlimit="10" d="M61.941,116.005c1.978-2.039,4.758-3.275,7.787-3.275
		c3.059,0,5.809,1.236,7.817,3.275c1.978,2.009,3.244,4.789,3.244,7.849c0,3.059-1.267,5.84-3.244,7.848
		c-2.009,2.04-4.759,3.275-7.817,3.275c-3.028,0-5.809-1.235-7.787-3.275c-1.978-2.008-3.245-4.789-3.245-7.848
		C58.697,120.794,59.964,118.014,61.941,116.005z M77.205,116.376c-1.916-1.947-4.573-3.152-7.478-3.152
		c-2.905,0-5.531,1.205-7.447,3.152c-1.885,1.915-3.09,4.542-3.09,7.478s1.205,5.562,3.09,7.478
		c1.916,1.946,4.542,3.151,7.447,3.151c2.904,0,5.562-1.205,7.478-3.151c1.885-1.916,3.059-4.542,3.059-7.478
		S79.09,118.291,77.205,116.376z"/>
	<path fill="#FFFFFF" stroke="#FFFFFF" stroke-miterlimit="10" d="M84.194,134.174h11.618v0.494c-4.047,0-8.064,0-12.112,0V113.07
		h0.495V134.174z"/>
	<path fill="#FFFFFF" stroke="#FFFFFF" stroke-miterlimit="10" d="M106.723,113.502h-4.604v20.702h4.604v0.464
		c-3.214,0-6.458,0-9.672,0v-0.464h4.604v-20.702h-4.604v-0.433c3.214,0,6.458,0,9.672,0V113.502z"/>
	<path fill="#FFFFFF" stroke="#FFFFFF" stroke-miterlimit="10" d="M116.15,113.07c14.183,0,14.183,21.599,0,21.599h-7.293
		c0-7.199,0-14.399,0-21.599H116.15z M116.15,134.204c13.564,0,13.564-20.671,0-20.671h-6.829c0,6.705,0,13.966,0,20.671H116.15z"/>
	<path fill="#FFFFFF" stroke="#FFFFFF" stroke-miterlimit="10" d="M142.264,117.581c-0.186-0.896-0.557-1.669-1.174-2.349
		c-1.329-1.421-3.461-2.009-5.408-1.978c-2.039,0.031-4.356,0.772-5.654,2.472c-0.772,0.958-1.051,2.102-0.958,3.307
		c0.557,7.57,12.669,1.638,14.152,8.559c0.988,4.573-3.337,7.292-7.447,7.292c-3.151,0-6.982-1.792-7.354-5.283l-0.031-0.217
		l0.495-0.062l0.03,0.217c0.34,3.244,3.955,4.882,6.891,4.882c3.77,0,7.849-2.441,6.952-6.736
		c-1.391-6.427-13.596-0.556-14.151-8.621c-0.124-1.297,0.216-2.564,1.02-3.614c3.151-4.079,12.051-3.554,13.102,2.039l0.03,0.247
		l-0.463,0.093L142.264,117.581z"/>
	<path fill="#FFFFFF" stroke="#FFFFFF" stroke-miterlimit="10" d="M85.617,155.742c0,0.145-0.128,0.288-0.32,0.288
		c-0.16,0-0.288-0.144-0.288-0.288c0-0.191,0.128-0.319,0.288-0.319C85.49,155.423,85.617,155.551,85.617,155.742z"/>
	<path fill="#FFFFFF" stroke="#FFFFFF" stroke-miterlimit="10" d="M87.119,155.983h-0.24c0-3.726,0-7.452,0-11.178h6.029v0.24
		h-5.789v5.213h5.117v0.256h-5.117V155.983z"/>
	<path fill="#FFFFFF" stroke="#FFFFFF" stroke-miterlimit="10" d="M94.169,155.983h-0.24v-11.066v-0.127h0.128h3.742
		c4.478,0,4.478,6.54,0,6.54h-1.807l5.149,4.653h-0.368l-5.149-4.653v-0.24h2.175c4.158,0,4.158-6.044,0-6.044h-3.63V155.983z"/>
</g>
</svg>
